<mxfile host="Electron" modified="2023-08-03T07:39:52.999Z" agent="Mozilla/5.0 (Windows NT 10.0; Win64; x64) AppleWebKit/537.36 (KHTML, like Gecko) draw.io/21.5.0 Chrome/112.0.5615.204 Electron/24.5.1 Safari/537.36" etag="XBZzq-rLlteQPYYZ_gA4" version="21.5.0" type="device">
  <diagram name="第 1 页" id="pXzLiLjHhXSIVCmC8Eia">
    <mxGraphModel dx="1329" dy="2537" grid="1" gridSize="10" guides="1" tooltips="1" connect="1" arrows="1" fold="1" page="1" pageScale="1" pageWidth="1169" pageHeight="827" math="0" shadow="0">
      <root>
        <mxCell id="0" />
        <mxCell id="1" parent="0" />
        <mxCell id="ue-ctrKMIbQpuEvLSKWv-120" value="Fetch FIFO" style="rounded=1;whiteSpace=wrap;html=1;" vertex="1" parent="1">
          <mxGeometry x="280" y="-640.25" width="120" height="340.25" as="geometry" />
        </mxCell>
        <mxCell id="ue-ctrKMIbQpuEvLSKWv-107" value="&lt;div style=&quot;line-height: 19px;&quot;&gt;&lt;font style=&quot;font-size: 10px;&quot; face=&quot;Times New Roman&quot;&gt;info0_in_i [9:0]&lt;/font&gt;&lt;/div&gt;" style="text;strokeColor=none;align=center;fillColor=none;html=1;verticalAlign=middle;whiteSpace=wrap;rounded=0;" vertex="1" parent="1">
          <mxGeometry x="280" y="-609.62" width="71" height="21" as="geometry" />
        </mxCell>
        <mxCell id="ue-ctrKMIbQpuEvLSKWv-108" value="&lt;div style=&quot;line-height: 19px;&quot;&gt;&lt;font style=&quot;font-size: 10px;&quot; face=&quot;Times New Roman&quot;&gt;info1_in_i [9:0]&lt;/font&gt;&lt;/div&gt;" style="text;strokeColor=none;align=center;fillColor=none;html=1;verticalAlign=middle;whiteSpace=wrap;rounded=0;" vertex="1" parent="1">
          <mxGeometry x="281" y="-534.88" width="70" height="21" as="geometry" />
        </mxCell>
        <mxCell id="ue-ctrKMIbQpuEvLSKWv-109" value="&lt;div style=&quot;line-height: 19px;&quot;&gt;&lt;div style=&quot;line-height: 19px;&quot;&gt;&lt;font style=&quot;font-size: 10px;&quot; face=&quot;Times New Roman&quot;&gt;data1_out_o [31:0]&lt;/font&gt;&lt;/div&gt;&lt;/div&gt;" style="text;strokeColor=none;align=center;fillColor=none;html=1;verticalAlign=middle;whiteSpace=wrap;rounded=0;" vertex="1" parent="1">
          <mxGeometry x="317.5" y="-417" width="82" height="10" as="geometry" />
        </mxCell>
        <mxCell id="ue-ctrKMIbQpuEvLSKWv-110" value="&lt;div style=&quot;line-height: 19px;&quot;&gt;&lt;div style=&quot;line-height: 19px;&quot;&gt;&lt;font style=&quot;font-size: 10px;&quot; face=&quot;Times New Roman&quot;&gt;data0_out_o [31:0]&lt;/font&gt;&lt;/div&gt;&lt;/div&gt;" style="text;strokeColor=none;align=center;fillColor=none;html=1;verticalAlign=middle;whiteSpace=wrap;rounded=0;" vertex="1" parent="1">
          <mxGeometry x="319.5" y="-558.6300000000001" width="79" height="10" as="geometry" />
        </mxCell>
        <mxCell id="ue-ctrKMIbQpuEvLSKWv-111" value="&lt;div style=&quot;line-height: 19px; font-size: 10px;&quot;&gt;&lt;font face=&quot;Times New Roman&quot;&gt;data_in_i[63:0]&lt;/font&gt;&lt;/div&gt;" style="text;strokeColor=none;align=center;fillColor=none;html=1;verticalAlign=middle;whiteSpace=wrap;rounded=0;" vertex="1" parent="1">
          <mxGeometry x="284" y="-452" width="61" height="20" as="geometry" />
        </mxCell>
        <mxCell id="ue-ctrKMIbQpuEvLSKWv-112" value="&lt;div style=&quot;line-height: 19px;&quot;&gt;&lt;font style=&quot;font-size: 10px;&quot;&gt;fetch_in_instr_i[63:0]&lt;/font&gt;&lt;/div&gt;" style="text;strokeColor=none;align=center;fillColor=none;html=1;verticalAlign=middle;whiteSpace=wrap;rounded=0;" vertex="1" parent="1">
          <mxGeometry x="167.26" y="-455.24" width="93.28" height="10" as="geometry" />
        </mxCell>
        <mxCell id="ue-ctrKMIbQpuEvLSKWv-113" value="" style="endArrow=classicThin;html=1;rounded=0;entryX=-0.009;entryY=0.286;entryDx=0;entryDy=0;entryPerimeter=0;endFill=1;" edge="1" parent="1">
          <mxGeometry width="50" height="50" relative="1" as="geometry">
            <mxPoint x="55.379999999999995" y="-521.13" as="sourcePoint" />
            <mxPoint x="279.99897999999996" y="-521.1719999999999" as="targetPoint" />
            <Array as="points">
              <mxPoint x="262.1" y="-521.13" />
            </Array>
          </mxGeometry>
        </mxCell>
        <mxCell id="ue-ctrKMIbQpuEvLSKWv-114" value="" style="endArrow=classicThin;html=1;rounded=0;entryX=-0.014;entryY=0.672;entryDx=0;entryDy=0;entryPerimeter=0;endFill=1;strokeWidth=2;" edge="1" parent="1">
          <mxGeometry width="50" height="50" relative="1" as="geometry">
            <mxPoint x="54.379999999999995" y="-440.24" as="sourcePoint" />
            <mxPoint x="278.6650800000001" y="-440.5239999999999" as="targetPoint" />
            <Array as="points">
              <mxPoint x="261.1" y="-440.74" />
            </Array>
          </mxGeometry>
        </mxCell>
        <mxCell id="ue-ctrKMIbQpuEvLSKWv-115" value="&lt;font style=&quot;font-size: 10px;&quot;&gt;{fetch_in_fault_page_i,fetch_in_fault_fetch_i}&lt;/font&gt;" style="text;strokeColor=none;align=center;fillColor=none;html=1;verticalAlign=middle;whiteSpace=wrap;rounded=0;" vertex="1" parent="1">
          <mxGeometry x="58.379999999999995" y="-534.88" width="207.03" height="10.75" as="geometry" />
        </mxCell>
        <mxCell id="ue-ctrKMIbQpuEvLSKWv-116" value="" style="endArrow=classicThin;html=1;rounded=0;entryX=-0.009;entryY=0.286;entryDx=0;entryDy=0;entryPerimeter=0;endFill=1;" edge="1" parent="1">
          <mxGeometry width="50" height="50" relative="1" as="geometry">
            <mxPoint x="55.379999999999995" y="-598.25" as="sourcePoint" />
            <mxPoint x="279.99897999999996" y="-598.2919999999999" as="targetPoint" />
            <Array as="points">
              <mxPoint x="262.1" y="-598.25" />
            </Array>
          </mxGeometry>
        </mxCell>
        <mxCell id="ue-ctrKMIbQpuEvLSKWv-117" value="&lt;font style=&quot;font-size: 10px;&quot;&gt;{fetch_in_fault_page_i,fetch_in_fault_fetch_i}&lt;/font&gt;" style="text;strokeColor=none;align=center;fillColor=none;html=1;verticalAlign=middle;whiteSpace=wrap;rounded=0;" vertex="1" parent="1">
          <mxGeometry x="58.379999999999995" y="-612" width="207.03" height="10.75" as="geometry" />
        </mxCell>
        <mxCell id="ue-ctrKMIbQpuEvLSKWv-118" value="&lt;div style=&quot;line-height: 19px;&quot;&gt;&lt;font style=&quot;font-size: 12px;&quot;&gt;Decoder&amp;nbsp;&lt;/font&gt;&lt;/div&gt;&lt;div style=&quot;line-height: 19px;&quot;&gt;&lt;font style=&quot;font-size: 12px;&quot;&gt;0&lt;/font&gt;&lt;/div&gt;" style="rounded=1;whiteSpace=wrap;html=1;" vertex="1" parent="1">
          <mxGeometry x="490" y="-601.25" width="71.5" height="101.25" as="geometry" />
        </mxCell>
        <mxCell id="ue-ctrKMIbQpuEvLSKWv-119" value="&lt;div style=&quot;line-height: 19px;&quot;&gt;&lt;font style=&quot;font-size: 12px;&quot;&gt;Decoder&amp;nbsp;&lt;/font&gt;&lt;/div&gt;&lt;div style=&quot;line-height: 19px;&quot;&gt;&lt;font style=&quot;font-size: 12px;&quot;&gt;1&lt;/font&gt;&lt;/div&gt;" style="rounded=1;whiteSpace=wrap;html=1;" vertex="1" parent="1">
          <mxGeometry x="490" y="-461" width="71.5" height="100" as="geometry" />
        </mxCell>
        <mxCell id="ue-ctrKMIbQpuEvLSKWv-122" value="" style="endArrow=classic;html=1;rounded=0;exitX=1;exitY=0.265;exitDx=0;exitDy=0;exitPerimeter=0;entryX=0;entryY=0.5;entryDx=0;entryDy=0;" edge="1" parent="1" source="ue-ctrKMIbQpuEvLSKWv-120" target="ue-ctrKMIbQpuEvLSKWv-118">
          <mxGeometry width="50" height="50" relative="1" as="geometry">
            <mxPoint x="410" y="-551.25" as="sourcePoint" />
            <mxPoint x="460" y="-601.25" as="targetPoint" />
          </mxGeometry>
        </mxCell>
        <mxCell id="ue-ctrKMIbQpuEvLSKWv-123" value="" style="endArrow=classic;html=1;rounded=0;exitX=1;exitY=0.647;exitDx=0;exitDy=0;exitPerimeter=0;entryX=-0.007;entryY=0.409;entryDx=0;entryDy=0;entryPerimeter=0;" edge="1" parent="1">
          <mxGeometry width="50" height="50" relative="1" as="geometry">
            <mxPoint x="400" y="-410.1082499999999" as="sourcePoint" />
            <mxPoint x="489.4995" y="-410.1" as="targetPoint" />
          </mxGeometry>
        </mxCell>
        <mxCell id="ue-ctrKMIbQpuEvLSKWv-124" value="&lt;div style=&quot;line-height: 19px;&quot;&gt;&lt;font style=&quot;font-size: 10px;&quot; face=&quot;Times New Roman&quot;&gt;opcode_i[31:0]&lt;/font&gt;&lt;/div&gt;" style="text;strokeColor=none;align=center;fillColor=none;html=1;verticalAlign=middle;whiteSpace=wrap;rounded=0;" vertex="1" parent="1">
          <mxGeometry x="410" y="-567.63" width="68.5" height="20" as="geometry" />
        </mxCell>
        <mxCell id="ue-ctrKMIbQpuEvLSKWv-125" value="&lt;div style=&quot;line-height: 19px;&quot;&gt;&lt;font style=&quot;font-size: 10px;&quot; face=&quot;Times New Roman&quot;&gt;opcode_i[31:0]&lt;/font&gt;&lt;/div&gt;" style="text;strokeColor=none;align=center;fillColor=none;html=1;verticalAlign=middle;whiteSpace=wrap;rounded=0;" vertex="1" parent="1">
          <mxGeometry x="410" y="-429" width="68.5" height="20" as="geometry" />
        </mxCell>
        <mxCell id="ue-ctrKMIbQpuEvLSKWv-126" value="" style="endArrow=classic;html=1;rounded=0;exitX=1.002;exitY=0.51;exitDx=0;exitDy=0;exitPerimeter=0;" edge="1" parent="1" source="ue-ctrKMIbQpuEvLSKWv-118">
          <mxGeometry width="50" height="50" relative="1" as="geometry">
            <mxPoint x="600" y="-548.63" as="sourcePoint" />
            <mxPoint x="800" y="-720" as="targetPoint" />
            <Array as="points">
              <mxPoint x="640" y="-550" />
              <mxPoint x="640" y="-720" />
            </Array>
          </mxGeometry>
        </mxCell>
        <mxCell id="ue-ctrKMIbQpuEvLSKWv-127" value="" style="endArrow=none;html=1;rounded=0;exitX=1.002;exitY=0.41;exitDx=0;exitDy=0;exitPerimeter=0;endFill=0;" edge="1" parent="1" source="ue-ctrKMIbQpuEvLSKWv-119">
          <mxGeometry width="50" height="50" relative="1" as="geometry">
            <mxPoint x="561.5" y="-419" as="sourcePoint" />
            <mxPoint x="640" y="-420" as="targetPoint" />
          </mxGeometry>
        </mxCell>
        <mxCell id="ue-ctrKMIbQpuEvLSKWv-131" value="" style="endArrow=classic;html=1;rounded=0;" edge="1" parent="1">
          <mxGeometry width="50" height="50" relative="1" as="geometry">
            <mxPoint x="640" y="-690" as="sourcePoint" />
            <mxPoint x="800" y="-690" as="targetPoint" />
          </mxGeometry>
        </mxCell>
        <mxCell id="ue-ctrKMIbQpuEvLSKWv-132" value="" style="endArrow=classic;html=1;rounded=0;" edge="1" parent="1">
          <mxGeometry width="50" height="50" relative="1" as="geometry">
            <mxPoint x="640" y="-660" as="sourcePoint" />
            <mxPoint x="800" y="-660" as="targetPoint" />
          </mxGeometry>
        </mxCell>
        <mxCell id="ue-ctrKMIbQpuEvLSKWv-133" value="" style="endArrow=classic;html=1;rounded=0;" edge="1" parent="1">
          <mxGeometry width="50" height="50" relative="1" as="geometry">
            <mxPoint x="640" y="-630" as="sourcePoint" />
            <mxPoint x="800" y="-630" as="targetPoint" />
          </mxGeometry>
        </mxCell>
        <mxCell id="ue-ctrKMIbQpuEvLSKWv-134" value="" style="endArrow=classic;html=1;rounded=0;" edge="1" parent="1">
          <mxGeometry width="50" height="50" relative="1" as="geometry">
            <mxPoint x="640" y="-600.42" as="sourcePoint" />
            <mxPoint x="800" y="-600" as="targetPoint" />
          </mxGeometry>
        </mxCell>
        <mxCell id="ue-ctrKMIbQpuEvLSKWv-135" value="" style="endArrow=classic;html=1;rounded=0;" edge="1" parent="1">
          <mxGeometry width="50" height="50" relative="1" as="geometry">
            <mxPoint x="640" y="-570.63" as="sourcePoint" />
            <mxPoint x="800" y="-570" as="targetPoint" />
          </mxGeometry>
        </mxCell>
        <mxCell id="ue-ctrKMIbQpuEvLSKWv-136" value="" style="endArrow=classic;html=1;rounded=0;" edge="1" parent="1">
          <mxGeometry width="50" height="50" relative="1" as="geometry">
            <mxPoint x="640" y="-550" as="sourcePoint" />
            <mxPoint x="800" y="-540" as="targetPoint" />
            <Array as="points">
              <mxPoint x="640" y="-540" />
            </Array>
          </mxGeometry>
        </mxCell>
        <mxCell id="ue-ctrKMIbQpuEvLSKWv-137" value="&lt;font style=&quot;font-size: 10px;&quot;&gt;fetch_out0_instr_invalid_o&lt;/font&gt;" style="text;strokeColor=none;align=center;fillColor=none;html=1;verticalAlign=middle;whiteSpace=wrap;rounded=0;" vertex="1" parent="1">
          <mxGeometry x="667" y="-738" width="130" height="20" as="geometry" />
        </mxCell>
        <mxCell id="ue-ctrKMIbQpuEvLSKWv-138" value="fetch_out0_instr_exec_o" style="text;strokeColor=none;align=center;fillColor=none;html=1;verticalAlign=middle;whiteSpace=wrap;rounded=0;fontSize=10;" vertex="1" parent="1">
          <mxGeometry x="670" y="-708" width="130" height="20" as="geometry" />
        </mxCell>
        <mxCell id="ue-ctrKMIbQpuEvLSKWv-139" value="" style="endArrow=classic;html=1;rounded=0;" edge="1" parent="1">
          <mxGeometry width="50" height="50" relative="1" as="geometry">
            <mxPoint x="640" y="-540" as="sourcePoint" />
            <mxPoint x="800" y="-510" as="targetPoint" />
            <Array as="points">
              <mxPoint x="640" y="-510" />
            </Array>
          </mxGeometry>
        </mxCell>
        <mxCell id="ue-ctrKMIbQpuEvLSKWv-140" value="fetch_out0_instr_lsu_o" style="text;strokeColor=none;align=center;fillColor=none;html=1;verticalAlign=middle;whiteSpace=wrap;rounded=0;fontSize=10;" vertex="1" parent="1">
          <mxGeometry x="675" y="-678" width="130" height="20" as="geometry" />
        </mxCell>
        <mxCell id="ue-ctrKMIbQpuEvLSKWv-141" value="fetch_out0_instr_branch_o" style="text;strokeColor=none;align=center;fillColor=none;html=1;verticalAlign=middle;whiteSpace=wrap;rounded=0;fontSize=10;" vertex="1" parent="1">
          <mxGeometry x="666" y="-648" width="130" height="20" as="geometry" />
        </mxCell>
        <mxCell id="ue-ctrKMIbQpuEvLSKWv-142" value="fetch_out0_instr_mul_o" style="text;strokeColor=none;align=center;fillColor=none;html=1;verticalAlign=middle;whiteSpace=wrap;rounded=0;fontSize=10;" vertex="1" parent="1">
          <mxGeometry x="673" y="-618.25" width="130" height="20" as="geometry" />
        </mxCell>
        <mxCell id="ue-ctrKMIbQpuEvLSKWv-143" value="fetch_out0_instr_div_o" style="text;strokeColor=none;align=center;fillColor=none;html=1;verticalAlign=middle;whiteSpace=wrap;rounded=0;fontSize=10;" vertex="1" parent="1">
          <mxGeometry x="675" y="-587.63" width="130" height="20" as="geometry" />
        </mxCell>
        <mxCell id="ue-ctrKMIbQpuEvLSKWv-144" value="fetch_out0_instr_csr_o" style="text;strokeColor=none;align=center;fillColor=none;html=1;verticalAlign=middle;whiteSpace=wrap;rounded=0;fontSize=10;" vertex="1" parent="1">
          <mxGeometry x="675" y="-557.63" width="130" height="20" as="geometry" />
        </mxCell>
        <mxCell id="ue-ctrKMIbQpuEvLSKWv-145" value="fetch_out0_instr_rd_valid_o" style="text;strokeColor=none;align=center;fillColor=none;html=1;verticalAlign=middle;whiteSpace=wrap;rounded=0;fontSize=10;" vertex="1" parent="1">
          <mxGeometry x="664" y="-527.88" width="130" height="20" as="geometry" />
        </mxCell>
        <mxCell id="ue-ctrKMIbQpuEvLSKWv-161" value="" style="endArrow=classic;html=1;rounded=0;" edge="1" parent="1">
          <mxGeometry width="50" height="50" relative="1" as="geometry">
            <mxPoint x="640" y="-289" as="sourcePoint" />
            <mxPoint x="800" y="-460" as="targetPoint" />
            <Array as="points">
              <mxPoint x="640" y="-460" />
            </Array>
          </mxGeometry>
        </mxCell>
        <mxCell id="ue-ctrKMIbQpuEvLSKWv-162" value="" style="endArrow=classic;html=1;rounded=0;" edge="1" parent="1">
          <mxGeometry width="50" height="50" relative="1" as="geometry">
            <mxPoint x="640" y="-430" as="sourcePoint" />
            <mxPoint x="800" y="-430" as="targetPoint" />
          </mxGeometry>
        </mxCell>
        <mxCell id="ue-ctrKMIbQpuEvLSKWv-163" value="" style="endArrow=classic;html=1;rounded=0;" edge="1" parent="1">
          <mxGeometry width="50" height="50" relative="1" as="geometry">
            <mxPoint x="640" y="-400" as="sourcePoint" />
            <mxPoint x="800" y="-400" as="targetPoint" />
          </mxGeometry>
        </mxCell>
        <mxCell id="ue-ctrKMIbQpuEvLSKWv-164" value="" style="endArrow=classic;html=1;rounded=0;" edge="1" parent="1">
          <mxGeometry width="50" height="50" relative="1" as="geometry">
            <mxPoint x="640" y="-370" as="sourcePoint" />
            <mxPoint x="800" y="-370" as="targetPoint" />
          </mxGeometry>
        </mxCell>
        <mxCell id="ue-ctrKMIbQpuEvLSKWv-165" value="" style="endArrow=classic;html=1;rounded=0;" edge="1" parent="1">
          <mxGeometry width="50" height="50" relative="1" as="geometry">
            <mxPoint x="640" y="-340.41999999999996" as="sourcePoint" />
            <mxPoint x="800" y="-340" as="targetPoint" />
          </mxGeometry>
        </mxCell>
        <mxCell id="ue-ctrKMIbQpuEvLSKWv-166" value="" style="endArrow=classic;html=1;rounded=0;" edge="1" parent="1">
          <mxGeometry width="50" height="50" relative="1" as="geometry">
            <mxPoint x="640" y="-310.63" as="sourcePoint" />
            <mxPoint x="800" y="-310" as="targetPoint" />
          </mxGeometry>
        </mxCell>
        <mxCell id="ue-ctrKMIbQpuEvLSKWv-167" value="" style="endArrow=classic;html=1;rounded=0;" edge="1" parent="1">
          <mxGeometry width="50" height="50" relative="1" as="geometry">
            <mxPoint x="640" y="-290" as="sourcePoint" />
            <mxPoint x="800" y="-280" as="targetPoint" />
            <Array as="points">
              <mxPoint x="640" y="-280" />
            </Array>
          </mxGeometry>
        </mxCell>
        <mxCell id="ue-ctrKMIbQpuEvLSKWv-168" value="&lt;font style=&quot;font-size: 10px;&quot;&gt;fetch_out1_instr_invalid_o&lt;/font&gt;" style="text;strokeColor=none;align=center;fillColor=none;html=1;verticalAlign=middle;whiteSpace=wrap;rounded=0;" vertex="1" parent="1">
          <mxGeometry x="667" y="-478" width="130" height="20" as="geometry" />
        </mxCell>
        <mxCell id="ue-ctrKMIbQpuEvLSKWv-169" value="fetch_out1_instr_exec_o" style="text;strokeColor=none;align=center;fillColor=none;html=1;verticalAlign=middle;whiteSpace=wrap;rounded=0;fontSize=10;" vertex="1" parent="1">
          <mxGeometry x="670" y="-448" width="130" height="20" as="geometry" />
        </mxCell>
        <mxCell id="ue-ctrKMIbQpuEvLSKWv-170" value="" style="endArrow=classic;html=1;rounded=0;" edge="1" parent="1">
          <mxGeometry width="50" height="50" relative="1" as="geometry">
            <mxPoint x="640" y="-280" as="sourcePoint" />
            <mxPoint x="800" y="-250" as="targetPoint" />
            <Array as="points">
              <mxPoint x="640" y="-250" />
            </Array>
          </mxGeometry>
        </mxCell>
        <mxCell id="ue-ctrKMIbQpuEvLSKWv-171" value="fetch_out1_instr_lsu_o" style="text;strokeColor=none;align=center;fillColor=none;html=1;verticalAlign=middle;whiteSpace=wrap;rounded=0;fontSize=10;" vertex="1" parent="1">
          <mxGeometry x="675" y="-418" width="130" height="20" as="geometry" />
        </mxCell>
        <mxCell id="ue-ctrKMIbQpuEvLSKWv-172" value="fetch_out1_instr_branch_o" style="text;strokeColor=none;align=center;fillColor=none;html=1;verticalAlign=middle;whiteSpace=wrap;rounded=0;fontSize=10;" vertex="1" parent="1">
          <mxGeometry x="666" y="-388" width="130" height="20" as="geometry" />
        </mxCell>
        <mxCell id="ue-ctrKMIbQpuEvLSKWv-173" value="fetch_out1_instr_mul_o" style="text;strokeColor=none;align=center;fillColor=none;html=1;verticalAlign=middle;whiteSpace=wrap;rounded=0;fontSize=10;" vertex="1" parent="1">
          <mxGeometry x="673" y="-358.25" width="130" height="20" as="geometry" />
        </mxCell>
        <mxCell id="ue-ctrKMIbQpuEvLSKWv-174" value="fetch_out1_instr_div_o" style="text;strokeColor=none;align=center;fillColor=none;html=1;verticalAlign=middle;whiteSpace=wrap;rounded=0;fontSize=10;" vertex="1" parent="1">
          <mxGeometry x="675" y="-327.63" width="130" height="20" as="geometry" />
        </mxCell>
        <mxCell id="ue-ctrKMIbQpuEvLSKWv-175" value="fetch_out1_instr_csr_o" style="text;strokeColor=none;align=center;fillColor=none;html=1;verticalAlign=middle;whiteSpace=wrap;rounded=0;fontSize=10;" vertex="1" parent="1">
          <mxGeometry x="675" y="-297.63" width="130" height="20" as="geometry" />
        </mxCell>
        <mxCell id="ue-ctrKMIbQpuEvLSKWv-176" value="fetch_out1_instr_rd_valid_o" style="text;strokeColor=none;align=center;fillColor=none;html=1;verticalAlign=middle;whiteSpace=wrap;rounded=0;fontSize=10;" vertex="1" parent="1">
          <mxGeometry x="664" y="-267.88" width="130" height="20" as="geometry" />
        </mxCell>
        <mxCell id="ue-ctrKMIbQpuEvLSKWv-179" value="&lt;div style=&quot;line-height: 19px;&quot;&gt;&lt;font style=&quot;font-size: 10px;&quot; face=&quot;Times New Roman&quot;&gt;info1_out_o [9:0]&lt;/font&gt;&lt;/div&gt;" style="text;strokeColor=none;align=center;fillColor=none;html=1;verticalAlign=middle;whiteSpace=wrap;rounded=0;" vertex="1" parent="1">
          <mxGeometry x="321" y="-333.25" width="78.5" height="21" as="geometry" />
        </mxCell>
        <mxCell id="ue-ctrKMIbQpuEvLSKWv-180" value="" style="endArrow=classic;html=1;rounded=0;exitX=0.992;exitY=0.617;exitDx=0;exitDy=0;exitPerimeter=0;" edge="1" parent="1">
          <mxGeometry width="50" height="50" relative="1" as="geometry">
            <mxPoint x="399.864" y="-350.043" as="sourcePoint" />
            <mxPoint x="800" y="-220" as="targetPoint" />
            <Array as="points">
              <mxPoint x="520" y="-350" />
              <mxPoint x="520" y="-220" />
            </Array>
          </mxGeometry>
        </mxCell>
        <mxCell id="ue-ctrKMIbQpuEvLSKWv-181" value="&lt;div style=&quot;line-height: 19px;&quot;&gt;&lt;font style=&quot;font-size: 10px;&quot; face=&quot;Times New Roman&quot;&gt;info0_out_o [9:0]&lt;/font&gt;&lt;/div&gt;" style="text;strokeColor=none;align=center;fillColor=none;html=1;verticalAlign=middle;whiteSpace=wrap;rounded=0;" vertex="1" parent="1">
          <mxGeometry x="321" y="-363" width="79.5" height="21" as="geometry" />
        </mxCell>
        <mxCell id="ue-ctrKMIbQpuEvLSKWv-182" value="" style="endArrow=classic;html=1;rounded=0;exitX=1.002;exitY=0.941;exitDx=0;exitDy=0;exitPerimeter=0;" edge="1" parent="1" source="ue-ctrKMIbQpuEvLSKWv-120">
          <mxGeometry width="50" height="50" relative="1" as="geometry">
            <mxPoint x="400.50399999999996" y="-322.903" as="sourcePoint" />
            <mxPoint x="800" y="-190" as="targetPoint" />
            <Array as="points">
              <mxPoint x="480" y="-320" />
              <mxPoint x="480" y="-190" />
            </Array>
          </mxGeometry>
        </mxCell>
        <mxCell id="ue-ctrKMIbQpuEvLSKWv-184" value="&lt;div style=&quot;line-height: 19px;&quot;&gt;&lt;font style=&quot;font-size: 10px;&quot;&gt;{fetch_out0_fault_page_o, fetch_out0_fault_fetch_o}&lt;/font&gt;&lt;/div&gt;" style="text;strokeColor=none;align=center;fillColor=none;html=1;verticalAlign=middle;whiteSpace=wrap;rounded=0;" vertex="1" parent="1">
          <mxGeometry x="542" y="-238" width="266" height="17.88" as="geometry" />
        </mxCell>
        <mxCell id="ue-ctrKMIbQpuEvLSKWv-185" value="&lt;div style=&quot;line-height: 19px;&quot;&gt;&lt;font style=&quot;font-size: 10px;&quot;&gt;{fetch_out1_fault_page_o, fetch_out1_fault_fetch_o}&lt;/font&gt;&lt;/div&gt;" style="text;strokeColor=none;align=center;fillColor=none;html=1;verticalAlign=middle;whiteSpace=wrap;rounded=0;" vertex="1" parent="1">
          <mxGeometry x="542" y="-208" width="266" height="17.88" as="geometry" />
        </mxCell>
      </root>
    </mxGraphModel>
  </diagram>
</mxfile>
